<?xml version="1.0" standalone="no"?>
<!DOCTYPE svg PUBLIC "-//W3C//DTD SVG 20010904//EN"
 "http://www.w3.org/TR/2001/REC-SVG-20010904/DTD/svg10.dtd">
<svg version="1.0" xmlns="http://www.w3.org/2000/svg"
 width="1871.000000pt" height="1604.000000pt" viewBox="0 0 1871.000000 1604.000000"
 preserveAspectRatio="xMidYMid meet">

<g transform="translate(0.000000,1604.000000) scale(0.100000,-0.100000)"
fill="#000000" stroke="none">
<path d="M425 11511 c-183 -52 -339 -208 -397 -396 -28 -90 -30 -233 -4 -320
60 -202 207 -349 411 -412 58 -17 346 -18 8925 -18 l8865 0 74 24 c184 60 326
204 383 386 26 82 30 250 9 325 -58 203 -219 363 -418 415 -50 13 -1095 15
-8923 14 -8361 0 -8868 -1 -8925 -18z"/>
<path d="M504 8600 c-227 -33 -413 -198 -480 -425 -24 -81 -24 -229 0 -310 60
-203 206 -348 411 -412 58 -17 348 -18 8920 -18 8572 0 8862 1 8920 18 294 91
468 355 427 647 -33 233 -183 405 -422 486 -53 18 -302 19 -8890 20 -4859 1
-8858 -2 -8886 -6z"/>
<path d="M515 5673 c-230 -31 -423 -199 -491 -428 -26 -87 -24 -230 4 -320 59
-192 222 -351 408 -399 56 -15 869 -16 8921 -16 7820 0 8866 2 8916 15 199 52
360 212 418 415 21 75 17 243 -9 325 -56 179 -189 316 -372 383 l-75 27 -8845
1 c-4865 1 -8858 -1 -8875 -3z"/>
</g>
</svg>
