<svg width="80" height="80" viewBox="0 0 80 80" fill="none" xmlns="http://www.w3.org/2000/svg">
<circle cx="40" cy="40" r="40" fill="#EFF9F9"/>
<path d="M79.4182 40C79.4182 61.7701 61.7701 79.4182 40 79.4182C18.2299 79.4182 0.581818 61.7701 0.581818 40C0.581818 18.2299 18.2299 0.581818 40 0.581818C61.7701 0.581818 79.4182 18.2299 79.4182 40ZM4.52364 40C4.52364 59.5931 20.4069 75.4764 40 75.4764C59.5931 75.4764 75.4764 59.5931 75.4764 40C75.4764 20.4069 59.5931 4.52364 40 4.52364C20.4069 4.52364 4.52364 20.4069 4.52364 40Z" fill="#CECBCB"/>
<path d="M40 2.55273C40 1.46422 40.883 0.576673 41.9702 0.631035C51.7071 1.11793 60.9462 5.20049 67.8729 12.1271C75.2652 19.5195 79.4182 29.5456 79.4182 40C79.4182 50.4543 75.2652 60.4805 67.8729 67.8728C60.9463 74.7995 51.7072 78.882 41.9702 79.369C40.8831 79.4233 40.0001 78.5358 40.0001 77.4473C40.0001 76.3588 40.8833 75.4821 41.9702 75.4217C50.661 74.9386 58.8984 71.2728 65.0856 65.0855C71.7387 58.4324 75.4764 49.4089 75.4764 40C75.4764 30.5911 71.7387 21.5675 65.0856 14.9144C58.8983 8.72717 50.661 5.06136 41.9701 4.57833C40.8833 4.51793 40 3.64123 40 2.55273Z" fill="#EF4B4B"/>
<path d="M22.4091 52V49.9545L30.0909 41.5455C30.9924 40.5606 31.7348 39.7045 32.3182 38.9773C32.9015 38.2424 33.3333 37.553 33.6136 36.9091C33.9015 36.2576 34.0455 35.5758 34.0455 34.8636C34.0455 34.0455 33.8485 33.3371 33.4545 32.7386C33.0682 32.1402 32.5379 31.678 31.8636 31.3523C31.1894 31.0265 30.4318 30.8636 29.5909 30.8636C28.697 30.8636 27.9167 31.0492 27.25 31.4205C26.5909 31.7841 26.0795 32.2955 25.7159 32.9545C25.3598 33.6136 25.1818 34.3864 25.1818 35.2727H22.5C22.5 33.9091 22.8144 32.7121 23.4432 31.6818C24.072 30.6515 24.928 29.8485 26.0114 29.2727C27.1023 28.697 28.3258 28.4091 29.6818 28.4091C31.0455 28.4091 32.2538 28.697 33.3068 29.2727C34.3598 29.8485 35.1856 30.625 35.7841 31.6023C36.3826 32.5795 36.6818 33.6667 36.6818 34.8636C36.6818 35.7197 36.5265 36.5568 36.2159 37.375C35.9129 38.1856 35.3826 39.0909 34.625 40.0909C33.875 41.0833 32.8333 42.2955 31.5 43.7273L26.2727 49.3182V49.5H37.0909V52H22.4091ZM49.0568 52.3182C47.7235 52.3182 46.5227 52.053 45.4545 51.5227C44.3864 50.9924 43.5303 50.2652 42.8864 49.3409C42.2424 48.4167 41.8902 47.3636 41.8295 46.1818H44.5568C44.6629 47.2348 45.1402 48.1061 45.9886 48.7955C46.8447 49.4773 47.8674 49.8182 49.0568 49.8182C50.0114 49.8182 50.8598 49.5947 51.6023 49.1477C52.3523 48.7008 52.9394 48.0871 53.3636 47.3068C53.7955 46.5189 54.0114 45.6288 54.0114 44.6364C54.0114 43.6212 53.7879 42.7159 53.3409 41.9205C52.9015 41.1174 52.2955 40.4848 51.5227 40.0227C50.75 39.5606 49.8674 39.3258 48.875 39.3182C48.1629 39.3106 47.4318 39.4205 46.6818 39.6477C45.9318 39.8674 45.3144 40.1515 44.8295 40.5L42.1932 40.1818L43.6023 28.7273H55.6932V31.2273H45.9659L45.1477 38.0909H45.2841C45.7614 37.7121 46.3598 37.3977 47.0795 37.1477C47.7992 36.8977 48.5492 36.7727 49.3295 36.7727C50.7538 36.7727 52.0227 37.1136 53.1364 37.7955C54.2576 38.4697 55.1364 39.3939 55.7727 40.5682C56.4167 41.7424 56.7386 43.0833 56.7386 44.5909C56.7386 46.0758 56.4053 47.4015 55.7386 48.5682C55.0795 49.7273 54.1705 50.6439 53.0114 51.3182C51.8523 51.9848 50.5341 52.3182 49.0568 52.3182Z" fill="black"/>
</svg>
