<svg width="608" height="608" viewBox="0 0 608 608" fill="none" xmlns="http://www.w3.org/2000/svg">
<circle cx="304" cy="304" r="304" fill="#EFF9F9"/>
<path d="M603.578 304C603.578 469.452 469.452 603.578 304 603.578C138.548 603.578 4.42182 469.452 4.42182 304C4.42182 138.548 138.548 4.42181 304 4.42181C469.452 4.42181 603.578 138.548 603.578 304ZM34.3796 304C34.3796 452.907 155.093 573.62 304 573.62C452.907 573.62 573.62 452.907 573.62 304C573.62 155.093 452.907 34.3796 304 34.3796C155.093 34.3796 34.3796 155.093 34.3796 304Z" fill="#CECBCB"/>
<path d="M304 19.4007C304 11.1281 310.711 4.38275 318.973 4.7962C353.199 6.5089 386.915 14.0835 418.644 27.2259C454.99 42.2811 488.015 64.3478 515.834 92.1663C543.652 119.985 565.719 153.01 580.774 189.356C595.829 225.703 603.578 264.659 603.578 304C603.578 343.341 595.829 382.297 580.774 418.644C565.719 454.99 543.652 488.015 515.834 515.834C488.015 543.652 454.99 565.719 418.644 580.774C386.915 593.917 353.198 601.491 318.973 603.204C310.71 603.617 304 596.872 304 588.599C304 580.327 310.712 573.664 318.971 573.204C349.261 571.52 379.086 564.733 407.179 553.097C439.891 539.547 469.614 519.687 494.65 494.65C519.687 469.614 539.547 439.891 553.097 407.179C566.646 374.467 573.62 339.407 573.62 304C573.62 268.593 566.646 233.533 553.097 200.821C539.547 168.109 519.687 138.386 494.65 113.35C469.614 88.3131 439.891 68.453 407.179 54.9033C379.086 43.2667 349.261 36.4801 318.971 34.7956C310.712 34.3363 304 27.6734 304 19.4007Z" fill="#EF4B4B"/>
<path d="M137.636 351V342.818L168.364 309.182C171.97 305.242 174.939 301.818 177.273 298.909C179.606 295.97 181.333 293.212 182.455 290.636C183.606 288.03 184.182 285.303 184.182 282.455C184.182 279.182 183.394 276.348 181.818 273.955C180.273 271.561 178.152 269.712 175.455 268.409C172.758 267.106 169.727 266.455 166.364 266.455C162.788 266.455 159.667 267.197 157 268.682C154.364 270.136 152.318 272.182 150.864 274.818C149.439 277.455 148.727 280.545 148.727 284.091H138C138 278.636 139.258 273.848 141.773 269.727C144.288 265.606 147.712 262.394 152.045 260.091C156.409 257.788 161.303 256.636 166.727 256.636C172.182 256.636 177.015 257.788 181.227 260.091C185.439 262.394 188.742 265.5 191.136 269.409C193.53 273.318 194.727 277.667 194.727 282.455C194.727 285.879 194.106 289.227 192.864 292.5C191.652 295.742 189.53 299.364 186.5 303.364C183.5 307.333 179.333 312.182 174 317.909L153.091 340.273V341H196.364V351H137.636ZM244.227 352.273C238.894 352.273 234.091 351.212 229.818 349.091C225.545 346.97 222.121 344.061 219.545 340.364C216.97 336.667 215.561 332.455 215.318 327.727H226.227C226.652 331.939 228.561 335.424 231.955 338.182C235.379 340.909 239.47 342.273 244.227 342.273C248.045 342.273 251.439 341.379 254.409 339.591C257.409 337.803 259.758 335.348 261.455 332.227C263.182 329.076 264.045 325.515 264.045 321.545C264.045 317.485 263.152 313.864 261.364 310.682C259.606 307.47 257.182 304.939 254.091 303.091C251 301.242 247.47 300.303 243.5 300.273C240.652 300.242 237.727 300.682 234.727 301.591C231.727 302.47 229.258 303.606 227.318 305L216.773 303.727L222.409 257.909H270.773V267.909H231.864L228.591 295.364H229.136C231.045 293.848 233.439 292.591 236.318 291.591C239.197 290.591 242.197 290.091 245.318 290.091C251.015 290.091 256.091 291.455 260.545 294.182C265.03 296.879 268.545 300.576 271.091 305.273C273.667 309.97 274.955 315.333 274.955 321.364C274.955 327.303 273.621 332.606 270.955 337.273C268.318 341.909 264.682 345.576 260.045 348.273C255.409 350.939 250.136 352.273 244.227 352.273ZM301.011 339.091C298.769 339.091 296.845 338.288 295.239 336.682C293.633 335.076 292.83 333.152 292.83 330.909C292.83 328.667 293.633 326.742 295.239 325.136C296.845 323.53 298.769 322.727 301.011 322.727C303.254 322.727 305.178 323.53 306.784 325.136C308.39 326.742 309.193 328.667 309.193 330.909C309.193 332.394 308.814 333.758 308.057 335C307.33 336.242 306.345 337.242 305.102 338C303.89 338.727 302.527 339.091 301.011 339.091ZM301.011 292C298.769 292 296.845 291.197 295.239 289.591C293.633 287.985 292.83 286.061 292.83 283.818C292.83 281.576 293.633 279.652 295.239 278.045C296.845 276.439 298.769 275.636 301.011 275.636C303.254 275.636 305.178 276.439 306.784 278.045C308.39 279.652 309.193 281.576 309.193 283.818C309.193 285.303 308.814 286.667 308.057 287.909C307.33 289.152 306.345 290.152 305.102 290.909C303.89 291.636 302.527 292 301.011 292ZM358.625 352.273C351.777 352.273 345.943 350.409 341.125 346.682C336.307 342.924 332.625 337.485 330.08 330.364C327.534 323.212 326.261 314.576 326.261 304.455C326.261 294.394 327.534 285.803 330.08 278.682C332.655 271.53 336.352 266.076 341.17 262.318C346.019 258.53 351.837 256.636 358.625 256.636C365.413 256.636 371.216 258.53 376.034 262.318C380.883 266.076 384.58 271.53 387.125 278.682C389.701 285.803 390.989 294.394 390.989 304.455C390.989 314.576 389.716 323.212 387.17 330.364C384.625 337.485 380.943 342.924 376.125 346.682C371.307 350.409 365.473 352.273 358.625 352.273ZM358.625 342.273C365.413 342.273 370.686 339 374.443 332.455C378.201 325.909 380.08 316.576 380.08 304.455C380.08 296.394 379.216 289.53 377.489 283.864C375.792 278.197 373.337 273.879 370.125 270.909C366.943 267.939 363.11 266.455 358.625 266.455C351.898 266.455 346.64 269.773 342.852 276.409C339.064 283.015 337.17 292.364 337.17 304.455C337.17 312.515 338.019 319.364 339.716 325C341.413 330.636 343.852 334.924 347.034 337.864C350.246 340.803 354.11 342.273 358.625 342.273ZM438.625 352.273C431.777 352.273 425.943 350.409 421.125 346.682C416.307 342.924 412.625 337.485 410.08 330.364C407.534 323.212 406.261 314.576 406.261 304.455C406.261 294.394 407.534 285.803 410.08 278.682C412.655 271.53 416.352 266.076 421.17 262.318C426.019 258.53 431.837 256.636 438.625 256.636C445.413 256.636 451.216 258.53 456.034 262.318C460.883 266.076 464.58 271.53 467.125 278.682C469.701 285.803 470.989 294.394 470.989 304.455C470.989 314.576 469.716 323.212 467.17 330.364C464.625 337.485 460.943 342.924 456.125 346.682C451.307 350.409 445.473 352.273 438.625 352.273ZM438.625 342.273C445.413 342.273 450.686 339 454.443 332.455C458.201 325.909 460.08 316.576 460.08 304.455C460.08 296.394 459.216 289.53 457.489 283.864C455.792 278.197 453.337 273.879 450.125 270.909C446.943 267.939 443.11 266.455 438.625 266.455C431.898 266.455 426.64 269.773 422.852 276.409C419.064 283.015 417.17 292.364 417.17 304.455C417.17 312.515 418.019 319.364 419.716 325C421.413 330.636 423.852 334.924 427.034 337.864C430.246 340.803 434.11 342.273 438.625 342.273Z" fill="black"/>
<g clip-path="url(#clip0_8_187)">
<path d="M257.203 464.562C256.351 464.038 255.28 464.021 254.411 464.51C253.541 464.999 253 465.921 253 466.922V487.189C253 488.191 253.541 489.112 254.411 489.602C255.28 490.091 256.351 490.068 257.203 489.55L273.785 479.416C274.608 478.915 275.109 478.023 275.109 477.056C275.109 476.088 274.608 475.202 273.785 474.695L257.203 464.562Z" fill="black"/>
</g>
<g clip-path="url(#clip1_8_187)">
<path d="M283.953 463.422C282.122 463.422 280.636 464.907 280.636 466.738V486.636C280.636 488.467 282.122 489.953 283.953 489.953H286.164C287.995 489.953 289.48 488.467 289.48 486.636V466.738C289.48 464.907 287.995 463.422 286.164 463.422H283.953ZM297.218 463.422C295.387 463.422 293.902 464.907 293.902 466.738V486.636C293.902 488.467 295.387 489.953 297.218 489.953H299.429C301.26 489.953 302.745 488.467 302.745 486.636V466.738C302.745 464.907 301.26 463.422 299.429 463.422H297.218Z" fill="black"/>
</g>
<g clip-path="url(#clip2_8_187)">
<path d="M333 469.686C333 467.654 334.652 466.001 336.685 466.001H351.424C353.457 466.001 355.109 467.654 355.109 469.686V484.425C355.109 486.458 353.457 488.11 351.424 488.11H336.685C334.652 488.11 333 486.458 333 484.425V469.686Z" fill="black"/>
</g>
<defs>
<clipPath id="clip0_8_187">
<rect width="22.1091" height="29.4788" fill="white" transform="translate(253 462.316)"/>
</clipPath>
<clipPath id="clip1_8_187">
<rect width="22.1091" height="35.3745" fill="white" transform="translate(280.636 459)"/>
</clipPath>
<clipPath id="clip2_8_187">
<rect width="22.1091" height="29.4788" fill="white" transform="translate(333 462.316)"/>
</clipPath>
</defs>
</svg>
